<svg width="632" height="84" viewBox="0 0 632 84" fill="none" xmlns="http://www.w3.org/2000/svg">
<path d="M144.101 40.1304C144.101 46.8403 140.387 55.1788 133.547 55.1788C126.707 55.1788 123.515 51.9868 123.515 48.5341C123.515 45.0814 125.534 42.5408 127.815 42.5408C130.029 42.5408 130.29 44.886 132.309 44.886C134.329 44.886 135.958 43.1922 135.958 39.5441C135.958 35.896 130.811 31.5314 126.056 31.5314C121.235 31.5314 114.199 36.7429 114.199 46.5798C114.199 56.4166 123.059 66.2534 133.091 66.2534C143.124 66.2534 154.719 60.651 154.719 41.7591C154.719 22.8671 140.648 17.2647 128.14 17.2647C113.808 17.2647 81.5619 34.8537 58.0447 66.2534H119.02C119.02 66.2534 104.037 57.7846 109.574 36.0915C109.574 36.0915 100.714 39.5441 99.8675 47.3615C99.0858 54.9834 102.538 59.4132 102.538 59.4132C102.538 59.4132 92.2456 58.8921 94.1348 46.1889C94.1348 46.1889 85.4054 47.6872 84.754 59.2178H72.5719C90.161 40.847 110.812 24.3003 128.727 24.3003C139.736 24.3003 144.101 33.0948 144.101 40.1304Z" stroke="white" stroke-width="1.95434" stroke-miterlimit="10"/>
<path d="M10.6186 43.4516C10.6186 36.7417 14.3318 28.4032 21.172 28.4032C28.0122 28.4032 31.2043 31.5953 31.2043 35.048C31.2043 38.4355 29.1848 41.0413 26.9047 41.0413C24.6898 41.0413 24.4292 38.6961 22.4097 38.6961C20.3903 38.6961 18.7616 40.3898 18.7616 44.0379C18.7616 47.686 23.9081 52.0507 28.6636 52.0507C33.4192 52.0507 40.5199 46.8392 40.5199 37.0023C40.5199 27.1655 31.6603 17.3287 21.628 17.3287C11.5957 17.3287 0 22.9311 0 41.823C0 60.715 14.0712 66.3174 26.579 66.3174C40.9759 66.3174 73.1574 48.7284 96.6746 17.3287H35.8295C35.8295 17.3287 50.8128 25.7975 45.2755 47.4906C45.2755 47.4906 54.1351 44.0379 54.982 36.2206C55.7638 28.5987 52.3111 24.1688 52.3111 24.1688C52.3111 24.1688 62.6691 24.6249 60.7147 37.328C60.7147 37.328 69.4441 35.8297 70.0956 24.2991H82.2776C64.6886 42.6699 44.0377 59.2166 26.123 59.2166C15.0484 59.2166 10.6186 50.4873 10.6186 43.4516Z" stroke="white" stroke-width="1.95434" stroke-miterlimit="10"/>
<path d="M302.664 43.4516C302.664 36.7417 298.951 28.4032 292.111 28.4032C285.27 28.4032 282.078 31.5953 282.078 35.048C282.078 38.4355 284.098 41.0413 286.378 41.0413C288.593 41.0413 288.853 38.6961 290.873 38.6961C292.892 38.6961 294.521 40.3898 294.521 44.0379C294.521 47.686 289.374 52.0507 284.619 52.0507C279.863 52.0507 272.763 46.8392 272.763 37.0023C272.763 27.1655 281.622 17.3287 291.655 17.3287C301.687 17.3287 313.283 22.9311 313.283 41.823C313.283 60.715 299.211 66.3174 286.704 66.3174C272.307 66.3174 240.125 48.7284 216.608 17.3287H277.583C277.583 17.3287 262.6 25.7975 268.137 47.4906C268.137 47.4906 259.278 44.0379 258.431 36.2206C257.649 28.5987 261.102 24.1688 261.102 24.1688C261.102 24.1688 250.679 24.6249 252.568 37.328C252.568 37.328 243.838 35.8297 243.187 24.2991H231.005C248.594 42.6699 269.245 59.2166 287.16 59.2166C298.299 59.2166 302.664 50.4873 302.664 43.4516Z" stroke="white" stroke-width="1.95434" stroke-miterlimit="10"/>
<path d="M169.182 40.1304C169.182 46.8403 172.895 55.1788 179.735 55.1788C186.575 55.1788 189.767 51.9868 189.767 48.5341C189.767 45.0814 187.748 42.5408 185.468 42.5408C183.253 42.5408 182.992 44.886 180.973 44.886C178.953 44.886 177.325 43.1922 177.325 39.5441C177.325 35.896 182.471 31.5314 187.227 31.5314C191.982 31.5314 199.083 36.7429 199.083 46.5798C199.083 56.4166 190.223 66.2534 180.191 66.2534C170.159 66.2534 158.563 60.651 158.563 41.7591C158.563 22.8671 172.634 17.2647 185.142 17.2647C199.539 17.2647 231.721 34.8537 255.238 66.2534H194.262C194.262 66.2534 209.246 57.7846 203.708 36.0915C203.708 36.0915 212.568 39.5441 213.415 47.3615C214.197 54.9834 210.744 59.4132 210.744 59.4132C210.744 59.4132 221.037 58.8921 219.148 46.1889C219.148 46.1889 227.877 47.6872 228.529 59.2178H240.841C223.252 40.847 202.601 24.3003 184.686 24.3003C173.612 24.3003 169.182 33.0948 169.182 40.1304Z" stroke="white" stroke-width="1.95434" stroke-miterlimit="10"/>
<path d="M0.132568 11.5312L319.08 11.5313" stroke="white" stroke-width="1.97271" stroke-miterlimit="10"/>
<path d="M0.132568 0L319.08 0" stroke="white" stroke-width="1.97271" stroke-miterlimit="10"/>
<path d="M0.132568 0L319.08 0" stroke="white" stroke-width="1.97271" stroke-miterlimit="10"/>
<path d="M0.132568 83.5811L319.08 83.5811" stroke="white" stroke-width="1.97271" stroke-miterlimit="10"/>
<path d="M0.132568 72.051L319.08 72.051" stroke="white" stroke-width="1.97271" stroke-miterlimit="10"/>
<path d="M0.132568 72.051L319.08 72.051" stroke="white" stroke-width="1.97271" stroke-miterlimit="10"/>
<path d="M461.682 40.1304C461.682 46.8403 457.969 55.1788 451.129 55.1788C444.289 55.1788 441.097 51.9868 441.097 48.5341C441.097 45.0814 443.116 42.5408 445.396 42.5408C447.611 42.5408 447.872 44.886 449.891 44.886C451.911 44.886 453.539 43.1922 453.539 39.5441C453.539 35.896 448.393 31.5314 443.637 31.5314C438.817 31.5314 431.781 36.7429 431.781 46.5798C431.781 56.4166 440.641 66.2534 450.673 66.2534C460.705 66.2534 472.301 60.651 472.301 41.7591C472.301 22.8671 458.23 17.2647 445.722 17.2647C431.39 17.2647 399.144 34.8537 375.626 66.2534H436.602C436.602 66.2534 421.619 57.7846 427.156 36.0915C427.156 36.0915 418.296 39.5441 417.449 47.3615C416.668 54.9834 420.12 59.4132 420.12 59.4132C420.12 59.4132 409.827 58.8921 411.717 46.1889C411.717 46.1889 402.987 47.6872 402.336 59.2178H390.023C407.612 40.847 428.263 24.3003 446.178 24.3003C457.318 24.3003 461.682 33.0948 461.682 40.1304Z" stroke="white" stroke-width="1.95434" stroke-miterlimit="10"/>
<path d="M328.267 43.4516C328.267 36.7417 331.98 28.4032 338.82 28.4032C345.66 28.4032 348.852 31.5953 348.852 35.048C348.852 38.4355 346.833 41.0413 344.553 41.0413C342.338 41.0413 342.077 38.6961 340.058 38.6961C338.038 38.6961 336.41 40.3898 336.41 44.0379C336.41 47.686 341.556 52.0507 346.312 52.0507C351.067 52.0507 358.168 46.8392 358.168 37.0023C358.168 27.1655 349.308 17.3287 339.276 17.3287C329.244 17.3287 317.648 22.9311 317.648 41.823C317.648 60.715 331.719 66.3174 344.227 66.3174C358.624 66.3174 390.805 48.7284 414.323 17.3287H353.347C353.347 17.3287 368.331 25.7975 362.793 47.4906C362.793 47.4906 371.653 44.0379 372.5 36.2206C373.282 28.5987 369.829 24.1688 369.829 24.1688C369.829 24.1688 380.252 24.6249 378.298 37.328C378.298 37.328 387.027 35.8297 387.679 24.2991H399.861C382.271 42.6699 361.621 59.2166 343.706 59.2166C332.631 59.2166 328.267 50.4873 328.267 43.4516Z" stroke="white" stroke-width="1.95434" stroke-miterlimit="10"/>
<path d="M620.241 43.4516C620.241 36.7417 616.528 28.4032 609.688 28.4032C602.848 28.4032 599.656 31.5953 599.656 35.048C599.656 38.4355 601.675 41.0413 603.955 41.0413C606.17 41.0413 606.431 38.6961 608.45 38.6961C610.47 38.6961 612.098 40.3898 612.098 44.0379C612.098 47.686 606.952 52.0507 602.196 52.0507C597.441 52.0507 590.34 46.8392 590.34 37.0023C590.34 27.1655 599.2 17.3287 609.232 17.3287C619.264 17.3287 630.86 22.9311 630.86 41.823C630.86 60.715 616.789 66.3174 604.281 66.3174C589.884 66.3174 557.702 48.7284 534.185 17.3287H595.161C595.161 17.3287 580.177 25.7975 585.715 47.4906C585.715 47.4906 576.855 44.0379 576.008 36.2206C575.226 28.5987 578.679 24.1688 578.679 24.1688C578.679 24.1688 568.386 24.69 570.275 37.3932C570.275 37.3932 561.546 35.8949 560.895 24.3643H548.713C566.302 42.735 586.952 59.2818 604.867 59.2818C615.877 59.2166 620.241 50.4873 620.241 43.4516Z" stroke="white" stroke-width="1.95434" stroke-miterlimit="10"/>
<path d="M486.825 40.1304C486.825 46.8403 490.539 55.1788 497.379 55.1788C504.219 55.1788 507.411 51.9868 507.411 48.5341C507.411 45.0814 505.392 42.5408 503.112 42.5408C500.897 42.5408 500.636 44.886 498.617 44.886C496.597 44.886 494.969 43.1922 494.969 39.5441C494.969 35.896 500.115 31.5314 504.871 31.5314C509.626 31.5314 516.727 36.7429 516.727 46.5798C516.727 56.4166 507.867 66.2534 497.835 66.2534C487.803 66.2534 476.207 60.651 476.207 41.7591C476.207 22.8671 490.278 17.2647 502.786 17.2647C517.183 17.2647 549.364 34.8537 572.881 66.2534H511.906C511.906 66.2534 526.889 57.7846 521.352 36.0915C521.352 36.0915 530.212 39.5441 531.059 47.3615C531.84 54.9834 528.388 59.4132 528.388 59.4132C528.388 59.4132 538.681 58.8921 536.791 46.1889C536.791 46.1889 545.521 47.6872 546.172 59.2178H558.354C540.765 40.847 520.114 24.3003 502.2 24.3003C491.19 24.3003 486.825 33.0948 486.825 40.1304Z" stroke="white" stroke-width="1.95434" stroke-miterlimit="10"/>
<path d="M317.71 11.5312L630.795 11.5313" stroke="white" stroke-width="1.95434" stroke-miterlimit="10"/>
<path d="M317.71 0L630.795 0" stroke="white" stroke-width="1.95434" stroke-miterlimit="10"/>
<path d="M317.71 0L630.795 0" stroke="white" stroke-width="1.95434" stroke-miterlimit="10"/>
<path d="M317.71 83.5811L630.795 83.5811" stroke="white" stroke-width="1.95434" stroke-miterlimit="10"/>
<path d="M317.71 72.051L630.795 72.051" stroke="white" stroke-width="1.95434" stroke-miterlimit="10"/>
<path d="M317.71 72.051L630.795 72.051" stroke="white" stroke-width="1.95434" stroke-miterlimit="10"/>
</svg>
