<svg width="668" height="84" viewBox="0 0 668 84" fill="none" xmlns="http://www.w3.org/2000/svg">
<g opacity="0.5">
<line y1="5.125" x2="668" y2="5.125" stroke="white" stroke-width="2"/>
<line y1="11.25" x2="668" y2="11.25" stroke="white" stroke-width="2"/>
<g clip-path="url(#clip0_2001_774)">
<path d="M12.0752 41.499L24.7402 19.6143H18.0527L15.3428 24.2979H15.3711L14.502 25.7988L7.38672 38.0928L0.270508 50.3867L-0.533203 51.7764L-1.42578 50.4414L-1.44043 50.4199L-1.45801 50.3926L-1.47461 50.3652L-3.04785 47.6436L-7.54883 39.8721L-7.5498 39.8701L-8.5752 38.0928L-15.6914 25.7988L-16.5596 24.2979H3.19629L2.32812 25.7988L-3.84473 36.4658L-0.594727 42.084L5.90723 30.8467L9.40625 24.7969H9.40723L12.4062 19.6143H-25.9297L-22.9297 24.7969L-13.2637 41.499V41.5L-10.3008 46.6201L-4.22949 57.1143L-4.23047 57.1152L-0.595703 63.3916L12.0752 41.499Z" stroke="white" stroke-width="2"/>
<path d="M12.6211 64.3867L15.3311 59.7031H15.3037L16.1719 58.2021L23.2881 45.9082L30.4033 33.6143L31.208 32.2246L32.1006 33.5596L32.1143 33.5811L32.1328 33.6074L32.1484 33.6357L33.7227 36.3574L38.2197 44.1289L39.25 45.9082L46.3652 58.2021L47.2344 59.7031H27.4775L28.3467 58.2021L34.5186 47.5361L31.2686 41.918L24.7666 53.1543L21.2637 59.2041L18.2646 64.3867H56.6035L53.6045 59.2041L43.9375 42.501L40.9756 37.3809L34.9004 26.8867L31.2676 20.6113L18.5996 42.501L5.93359 64.3867H12.6211Z" stroke="white" stroke-width="2"/>
<path d="M75.8057 41.499L88.4707 19.6143H81.7832L79.0732 24.2979H79.1016L78.2324 25.7988L71.1172 38.0928L64.001 50.3867L63.1973 51.7764L62.3047 50.4414L62.29 50.4199L62.2725 50.3926L62.2559 50.3652L60.6826 47.6436L56.1816 39.8721L56.1807 39.8701L55.1553 38.0928L48.0391 25.7988L47.1709 24.2979H66.9268L66.0586 25.7988L59.8857 36.4658L63.1357 42.084L69.6377 30.8467L73.1367 24.7969H73.1377L76.1367 19.6143H37.8008L40.8008 24.7969L50.4668 41.499V41.5L53.4297 46.6201L59.501 57.1143L59.5 57.1152L63.1348 63.3916L75.8057 41.499Z" stroke="white" stroke-width="2"/>
<path d="M76.3555 64.3867L79.0654 59.7031H79.0381L79.9062 58.2021L87.0225 45.9082L94.1377 33.6143L94.9424 32.2246L95.835 33.5596L95.8486 33.5811L95.8672 33.6074L95.8828 33.6357L97.457 36.3574L101.954 44.1289L102.984 45.9082L110.1 58.2021L110.969 59.7031H91.2119L92.0811 58.2021L98.2529 47.5361L95.0029 41.918L88.501 53.1543L84.998 59.2041L81.999 64.3867H120.338L117.339 59.2041L107.672 42.501L104.71 37.3809L98.6348 26.8867L95.002 20.6113L82.334 42.501L69.668 64.3867H76.3555Z" stroke="white" stroke-width="2"/>
<path d="M139.54 41.499L152.205 19.6143H145.518L142.808 24.2979H142.836L141.967 25.7988L134.852 38.0928L127.735 50.3867L126.932 51.7764L126.039 50.4414L126.024 50.4199L126.007 50.3926L125.99 50.3652L124.417 47.6436L119.916 39.8721L119.915 39.8701L118.89 38.0928L111.773 25.7988L110.905 24.2979H130.661L129.793 25.7988L123.62 36.4658L126.87 42.084L133.372 30.8467L136.871 24.7969H136.872L139.871 19.6143H101.535L104.535 24.7969L114.201 41.499V41.5L117.164 46.6201L123.235 57.1143L123.234 57.1152L126.869 63.3916L139.54 41.499Z" stroke="white" stroke-width="2"/>
<path d="M140.086 64.3867L142.796 59.7031H142.769L143.637 58.2021L150.753 45.9082L157.868 33.6143L158.673 32.2246L159.565 33.5596L159.579 33.5811L159.598 33.6074L159.613 33.6357L161.188 36.3574L165.685 44.1289L166.715 45.9082L173.83 58.2021L174.699 59.7031H154.942L155.812 58.2021L161.983 47.5361L158.733 41.918L152.231 53.1543L148.729 59.2041L145.729 64.3867H184.068L181.069 59.2041L171.402 42.501L168.44 37.3809L162.365 26.8867L158.732 20.6113L146.064 42.501L133.398 64.3867H140.086Z" stroke="white" stroke-width="2"/>
<path d="M203.271 41.499L215.936 19.6143H209.248L206.538 24.2979H206.566L205.697 25.7988L198.582 38.0928L191.466 50.3867L190.662 51.7764L189.77 50.4414L189.755 50.4199L189.737 50.3926L189.721 50.3652L188.147 47.6436L183.646 39.8721L183.646 39.8701L182.62 38.0928L175.504 25.7988L174.636 24.2979H194.392L193.523 25.7988L187.351 36.4658L190.601 42.084L197.103 30.8467L200.602 24.7969H200.603L203.602 19.6143H165.266L168.266 24.7969L177.932 41.499V41.5L180.895 46.6201L186.966 57.1143L186.965 57.1152L190.6 63.3916L203.271 41.499Z" stroke="white" stroke-width="2"/>
<path d="M203.82 64.3867L206.53 59.7031H206.503L207.371 58.2021L214.487 45.9082L221.603 33.6143L222.407 32.2246L223.3 33.5596L223.313 33.5811L223.332 33.6074L223.348 33.6357L224.922 36.3574L229.419 44.1289L230.449 45.9082L237.564 58.2021L238.434 59.7031H218.677L219.546 58.2021L225.718 47.5361L222.468 41.918L215.966 53.1543L212.463 59.2041L209.464 64.3867H247.803L244.804 59.2041L235.137 42.501L232.175 37.3809L226.1 26.8867L222.467 20.6113L209.799 42.501L197.133 64.3867H203.82Z" stroke="white" stroke-width="2"/>
<path d="M267.005 41.499L279.67 19.6143H272.982L270.272 24.2979H270.301L269.432 25.7988L262.316 38.0928L255.2 50.3867L254.396 51.7764L253.504 50.4414L253.489 50.4199L253.472 50.3926L253.455 50.3652L251.882 47.6436L247.381 39.8721L247.38 39.8701L246.354 38.0928L239.238 25.7988L238.37 24.2979H258.126L257.258 25.7988L251.085 36.4658L254.335 42.084L260.837 30.8467L264.336 24.7969H264.337L267.336 19.6143H229L232 24.7969L241.666 41.499V41.5L244.629 46.6201L250.7 57.1143L250.699 57.1152L254.334 63.3916L267.005 41.499Z" stroke="white" stroke-width="2"/>
<path d="M267.555 64.3867L270.265 59.7031H270.237L271.105 58.2021L278.222 45.9082L285.337 33.6143L286.142 32.2246L287.034 33.5596L287.048 33.5811L287.066 33.6074L287.082 33.6357L288.656 36.3574L293.153 44.1289L294.184 45.9082L301.299 58.2021L302.168 59.7031H282.411L283.28 58.2021L289.452 47.5361L286.202 41.918L279.7 53.1543L276.197 59.2041L273.198 64.3867H311.537L308.538 59.2041L298.871 42.501L295.909 37.3809L289.834 26.8867L286.201 20.6113L273.533 42.501L260.867 64.3867H267.555Z" stroke="white" stroke-width="2"/>
<path d="M330.735 41.499L343.4 19.6143H336.713L334.003 24.2979H334.031L333.162 25.7988L326.047 38.0928L318.931 50.3867L318.127 51.7764L317.234 50.4414L317.22 50.4199L317.202 50.3926L317.186 50.3652L315.612 47.6436L311.111 39.8721L311.11 39.8701L310.085 38.0928L302.969 25.7988L302.101 24.2979H321.856L320.988 25.7988L314.815 36.4658L318.065 42.084L324.567 30.8467L328.066 24.7969H328.067L331.066 19.6143H292.73L295.73 24.7969L305.396 41.499V41.5L308.359 46.6201L314.431 57.1143L314.43 57.1152L318.064 63.3916L330.735 41.499Z" stroke="white" stroke-width="2"/>
<path d="M331.285 64.3867L333.995 59.7031H333.968L334.836 58.2021L341.952 45.9082L349.067 33.6143L349.872 32.2246L350.765 33.5596L350.778 33.5811L350.797 33.6074L350.812 33.6357L352.387 36.3574L356.884 44.1289L357.914 45.9082L365.029 58.2021L365.898 59.7031H346.142L347.011 58.2021L353.183 47.5361L349.933 41.918L343.431 53.1543L339.928 59.2041L336.929 64.3867H375.268L372.269 59.2041L362.602 42.501L359.64 37.3809L353.564 26.8867L349.932 20.6113L337.264 42.501L324.598 64.3867H331.285Z" stroke="white" stroke-width="2"/>
<path d="M394.47 41.499L407.135 19.6143H400.447L397.737 24.2979H397.766L396.896 25.7988L389.781 38.0928L382.665 50.3867L381.861 51.7764L380.969 50.4414L380.954 50.4199L380.937 50.3926L380.92 50.3652L379.347 47.6436L374.846 39.8721L374.845 39.8701L373.819 38.0928L366.703 25.7988L365.835 24.2979H385.591L384.723 25.7988L378.55 36.4658L381.8 42.084L388.302 30.8467L391.801 24.7969H391.802L394.801 19.6143H356.465L359.465 24.7969L369.131 41.499V41.5L372.094 46.6201L378.165 57.1143L378.164 57.1152L381.799 63.3916L394.47 41.499Z" stroke="white" stroke-width="2"/>
<path d="M395.02 64.3867L397.729 59.7031H397.702L398.57 58.2021L405.687 45.9082L412.802 33.6143L413.606 32.2246L414.499 33.5596L414.513 33.5811L414.531 33.6074L414.547 33.6357L416.121 36.3574L420.618 44.1289L421.648 45.9082L428.764 58.2021L429.633 59.7031H409.876L410.745 58.2021L416.917 47.5361L413.667 41.918L407.165 53.1543L403.662 59.2041L400.663 64.3867H439.002L436.003 59.2041L426.336 42.501L423.374 37.3809L417.299 26.8867L413.666 20.6113L400.998 42.501L388.332 64.3867H395.02Z" stroke="white" stroke-width="2"/>
<path d="M458.2 41.499L470.865 19.6143H464.178L461.468 24.2979H461.496L460.627 25.7988L453.512 38.0928L446.396 50.3867L445.592 51.7764L444.699 50.4414L444.685 50.4199L444.667 50.3926L444.65 50.3652L443.077 47.6436L438.576 39.8721L438.575 39.8701L437.55 38.0928L430.434 25.7988L429.565 24.2979H449.321L448.453 25.7988L442.28 36.4658L445.53 42.084L452.032 30.8467L455.531 24.7969H455.532L458.531 19.6143H420.195L423.195 24.7969L432.861 41.499V41.5L435.824 46.6201L441.896 57.1143L441.895 57.1152L445.529 63.3916L458.2 41.499Z" stroke="white" stroke-width="2"/>
<path d="M458.75 64.3867L461.46 59.7031H461.433L462.301 58.2021L469.417 45.9082L476.532 33.6143L477.337 32.2246L478.229 33.5596L478.243 33.5811L478.262 33.6074L478.277 33.6357L479.852 36.3574L484.349 44.1289L485.379 45.9082L492.494 58.2021L493.363 59.7031H473.606L474.476 58.2021L480.647 47.5361L477.397 41.918L470.896 53.1543L467.393 59.2041L464.394 64.3867H502.732L499.733 59.2041L490.066 42.501L487.104 37.3809L481.029 26.8867L477.396 20.6113L464.729 42.501L452.062 64.3867H458.75Z" stroke="white" stroke-width="2"/>
<path d="M521.935 41.499L534.6 19.6143H527.912L525.202 24.2979H525.23L524.361 25.7988L517.246 38.0928L510.13 50.3867L509.326 51.7764L508.434 50.4414L508.419 50.4199L508.401 50.3926L508.385 50.3652L506.812 47.6436L502.311 39.8721L502.31 39.8701L501.284 38.0928L494.168 25.7988L493.3 24.2979H513.056L512.188 25.7988L506.015 36.4658L509.265 42.084L515.767 30.8467L519.266 24.7969H519.267L522.266 19.6143H483.93L486.93 24.7969L496.596 41.499V41.5L499.559 46.6201L505.63 57.1143L505.629 57.1152L509.264 63.3916L521.935 41.499Z" stroke="white" stroke-width="2"/>
<path d="M522.484 64.3867L525.194 59.7031H525.167L526.035 58.2021L533.151 45.9082L540.267 33.6143L541.071 32.2246L541.964 33.5596L541.978 33.5811L541.996 33.6074L542.012 33.6357L543.586 36.3574L548.083 44.1289L549.113 45.9082L556.229 58.2021L557.098 59.7031H537.341L538.21 58.2021L544.382 47.5361L541.132 41.918L534.63 53.1543L531.127 59.2041L528.128 64.3867H566.467L563.468 59.2041L553.801 42.501L550.839 37.3809L544.764 26.8867L541.131 20.6113L528.463 42.501L515.797 64.3867H522.484Z" stroke="white" stroke-width="2"/>
<path d="M585.669 41.499L598.334 19.6143H591.646L588.937 24.2979H588.965L588.096 25.7988L580.98 38.0928L573.864 50.3867L573.061 51.7764L572.168 50.4414L572.153 50.4199L572.136 50.3926L572.119 50.3652L570.546 47.6436L566.045 39.8721L566.044 39.8701L565.019 38.0928L557.902 25.7988L557.034 24.2979H576.79L575.922 25.7988L569.749 36.4658L572.999 42.084L579.501 30.8467L583 24.7969H583.001L586 19.6143H547.664L550.664 24.7969L560.33 41.499V41.5L563.293 46.6201L569.364 57.1143L569.363 57.1152L572.998 63.3916L585.669 41.499Z" stroke="white" stroke-width="2"/>
<path d="M586.215 64.3867L588.925 59.7031H588.897L589.766 58.2021L596.882 45.9082L603.997 33.6143L604.802 32.2246L605.694 33.5596L605.708 33.5811L605.727 33.6074L605.742 33.6357L607.316 36.3574L611.813 44.1289L612.844 45.9082L619.959 58.2021L620.828 59.7031H601.071L601.94 58.2021L608.112 47.5361L604.862 41.918L598.36 53.1543L594.857 59.2041L591.858 64.3867H630.197L627.198 59.2041L617.531 42.501L614.569 37.3809L608.494 26.8867L604.861 20.6113L592.193 42.501L579.527 64.3867H586.215Z" stroke="white" stroke-width="2"/>
<path d="M649.399 41.499L662.064 19.6143H655.377L652.667 24.2979H652.695L651.826 25.7988L644.711 38.0928L637.595 50.3867L636.791 51.7764L635.898 50.4414L635.884 50.4199L635.866 50.3926L635.85 50.3652L634.276 47.6436L629.775 39.8721L629.774 39.8701L628.749 38.0928L621.633 25.7988L620.765 24.2979H640.521L639.652 25.7988L633.479 36.4658L636.729 42.084L643.231 30.8467L646.73 24.7969H646.731L649.73 19.6143H611.395L614.395 24.7969L624.061 41.499V41.5L627.023 46.6201L633.095 57.1143L633.094 57.1152L636.729 63.3916L649.399 41.499Z" stroke="white" stroke-width="2"/>
<path d="M649.949 64.3867L652.659 59.7031H652.632L653.5 58.2021L660.616 45.9082L667.731 33.6143L668.536 32.2246L669.429 33.5596L669.442 33.5811L669.461 33.6074L669.477 33.6357L671.051 36.3574L675.548 44.1289L676.578 45.9082L683.693 58.2021L684.562 59.7031H664.806L665.675 58.2021L671.847 47.5361L668.597 41.918L662.095 53.1543L658.592 59.2041L655.593 64.3867H693.932L690.933 59.2041L681.266 42.501L678.304 37.3809L672.229 26.8867L668.596 20.6113L655.928 42.501L643.262 64.3867H649.949Z" stroke="white" stroke-width="2"/>
</g>
<line y1="70.75" x2="668" y2="70.75" stroke="white" stroke-width="2"/>
<line y1="76.875" x2="668" y2="76.875" stroke="white" stroke-width="2"/>
<line y1="83" x2="668" y2="83" stroke="white" stroke-width="2"/>
</g>
<defs>
<clipPath id="clip0_2001_774">
<rect width="668" height="46.7727" fill="white" transform="matrix(1 0 0 -1 0 65.3867)"/>
</clipPath>
</defs>
</svg>
