<svg width="89" height="84" viewBox="0 0 89 84" fill="none" xmlns="http://www.w3.org/2000/svg">
<rect width="89" height="84" fill="#382E29"/>
<path d="M29 62.1133V21.8866C29 20.7854 29.3887 19.8617 30.1662 19.1155C30.9437 18.3692 31.8508 17.9974 32.8874 18C33.2114 18 33.5521 18.0479 33.9098 18.1438C34.2674 18.2397 34.6069 18.3861 34.9283 18.583L66.6106 38.6963C67.1937 39.085 67.6317 39.5708 67.9246 40.1538C68.2174 40.7368 68.3626 41.3522 68.36 42C68.3574 42.6477 68.2122 43.2631 67.9246 43.8461C67.6369 44.4291 67.1989 44.9149 66.6106 45.3036L34.9283 65.4169C34.6043 65.6112 34.2648 65.7576 33.9098 65.8561C33.5547 65.9546 33.2139 66.0025 32.8874 65.9999C31.8508 65.9999 30.9437 65.6268 30.1662 64.8806C29.3887 64.1343 29 63.2119 29 62.1133Z" fill="white"/>
</svg>
